# xmcd CD database file
#
# Track frame offsets:
#	182
#	14105
#	27535
#	40307
#	53647
#	66907
#	77540
#	90435
#	103527
#	116257
#	129115
#	140637
#	152890
#	170400
#	180477
#	198210
#	209625
#	220697
#	230795
#	243590
#	253927
#	267562
#	281635
#	296450
#
# Disc length: 4097 seconds
#
# Revision: 0
# Processed by: cddbd v1.4PL0 Copyright (c) Steve Scherf et al.
# Submitted via: CDex 1.50
#
DISCID=650fff18
DTITLE=Chu Berry - Berry Story
DYEAR=1990
DGENRE=Jazz
TTITLE0=I Hope Gabriel Likes My Music
TTITLE1=Now You'Re Talking Mylanguage
TTITLE2=Indiana
TTITLE3=Too Marvelous For Words
TTITLE4=Limehouse Blues
TTITLE5=Chuberry Jam
TTITLE6=Maelstrom
TTITLE7=My Secrret Love Affair
TTITLE8=Ebb-Tide
TTITLE9=Annie Laurie
TTITLE10=Loch Lomond
TTITLE11=In The Land Of Yamo Yamo
TTITLE12=Body And Soul
TTITLE13=Sittin' In
TTITLE14=Stardust
TTITLE15=Forty Six West Fifty Two
TTITLE16=Downright Disgusted Blues
TTITLE17=Corrine Corrini
TTITLE18=Jumpy Nerves
TTITLE19=Casey Jones
TTITLE20=Sweethearts On Parade
TTITLE21=Shufflin' At Hollywood
TTITLE22=Denisson Swing
TTITLE23=Wizzin' The Wizz
EXTD=YEAR: 1990
EXTT0=
EXTT1=
EXTT2=
EXTT3=
EXTT4=
EXTT5=
EXTT6=
EXTT7=
EXTT8=
EXTT9=
EXTT10=
EXTT11=
EXTT12=
EXTT13=
EXTT14=
EXTT15=
EXTT16=
EXTT17=
EXTT18=
EXTT19=
EXTT20=
EXTT21=
EXTT22=
EXTT23=
PLAYORDER=
